<svg xmlns="http://www.w3.org/2000/svg" viewBox="0 0 800 500"><rect width="800" height="500" rx="35" fill="#fff7ed"/><ellipse cx="420" cy="390" rx="300" ry="35" fill="#fed7aa"/><path d="M120 325c90-20 155-75 215-180 20-35 65-25 105 25l80 105c35 45 105 45 180 65 40 10 55 38 25 55-95 35-455 30-590-3-35-8-35-47-15-67Z" fill="#dc2626"/><path d="M335 155l95 95 80 40M295 205l90 90M270 235l90 85" fill="none" stroke="white" stroke-width="15"/><path d="M130 372c170 33 455 33 600 0" fill="none" stroke="white" stroke-width="25"/><text x="400" y="70" text-anchor="middle" font-family="Arial" font-size="34" font-weight="700">ANIGBOGU • STREET</text></svg>